<svg width="176" height="56" viewBox="0 0 176 56" fill="none" xmlns="http://www.w3.org/2000/svg">
<g clip-path="url(#clip0_4836_120819)">
<path d="M78.332 4.98766V8.77159H72.3919V24.6976H67.9537V8.77159H62.0083V4.98766H78.332Z" fill="#333333"/>
<path d="M85.8316 5.41683C85.8487 5.75882 85.79 6.10037 85.6597 6.41703C85.5294 6.7337 85.3307 7.01766 85.0779 7.2486C84.5868 7.68062 83.9551 7.91892 83.3011 7.91892C82.647 7.91892 82.0153 7.68062 81.5243 7.2486C81.2714 7.01766 81.0728 6.7337 80.9425 6.41703C80.8122 6.10037 80.7535 5.75882 80.7706 5.41683C80.7531 5.07401 80.8116 4.73156 80.9419 4.41398C81.0721 4.0964 81.271 3.81155 81.5243 3.57982C82.0153 3.1478 82.647 2.9095 83.3011 2.9095C83.9551 2.9095 84.5868 3.1478 85.0779 3.57982C85.3311 3.81155 85.53 4.0964 85.6603 4.41398C85.7906 4.73156 85.8491 5.07401 85.8316 5.41683ZM85.4338 24.6976H81.1998V9.73982H85.4338V24.6976Z" fill="#333333"/>
<path d="M89.6787 10.2475C90.5963 9.99906 91.5278 9.80508 92.4682 9.66655C93.6526 9.4831 94.8495 9.39211 96.0481 9.3944C97.1268 9.36349 98.2021 9.53205 99.2196 9.89159C99.9976 10.1811 100.688 10.6659 101.224 11.2994C101.727 11.9345 102.085 12.6724 102.271 13.4609C102.489 14.3745 102.594 15.3113 102.585 16.2505V24.6976H98.3456V16.7477C98.3456 15.3834 98.1712 14.4152 97.8223 13.843C97.4611 13.2778 96.7755 12.9899 95.8021 12.9899C95.4985 12.9899 95.1793 12.9899 94.8391 13.037C94.4989 13.0841 94.1901 13.0946 93.9284 13.1365V24.6976H89.6892L89.6787 10.2475Z" fill="#333333"/>
<path d="M115.983 25.1215C112.78 25.1215 110.338 24.23 108.656 22.4471C106.974 20.6642 106.135 18.1328 106.138 14.8531C106.113 13.355 106.376 11.866 106.913 10.4673C107.38 9.25459 108.093 8.1516 109.006 7.22767C109.913 6.3365 111.005 5.65573 112.204 5.23365C113.489 4.76773 114.847 4.53553 116.213 4.54804C116.974 4.54293 117.734 4.60422 118.485 4.73122C119.091 4.83713 119.691 4.98046 120.28 5.16038C120.718 5.29185 121.145 5.45811 121.557 5.65757C121.897 5.83028 122.148 5.96113 122.3 6.05533L121.018 9.64038C120.351 9.29249 119.649 9.01534 118.924 8.81346C118.03 8.576 117.107 8.46155 116.182 8.47328C115.499 8.47388 114.822 8.58887 114.177 8.81346C113.523 9.04169 112.929 9.41573 112.44 9.90729C111.902 10.4645 111.49 11.1301 111.231 11.8594C110.907 12.7908 110.754 13.7731 110.781 14.7589C110.774 15.6158 110.875 16.4702 111.079 17.3024C111.243 18.0324 111.556 18.7203 112 19.3226C112.468 19.9049 113.067 20.3677 113.748 20.6729C114.573 21.0328 115.465 21.2113 116.365 21.1963C116.946 21.2015 117.527 21.163 118.103 21.0811C118.562 21.0157 119.018 20.9266 119.469 20.8142C119.826 20.7216 120.176 20.6027 120.515 20.4583L121.337 20.0867L122.562 23.6404C121.733 24.1093 120.844 24.4616 119.919 24.6871C118.631 25 117.308 25.146 115.983 25.1215Z" fill="#333333"/>
<path d="M134.442 13.4923C134.06 13.3981 133.615 13.2987 133.102 13.194C132.559 13.0864 132.007 13.0338 131.453 13.037C131.135 13.0398 130.817 13.0625 130.501 13.105C130.218 13.1377 129.939 13.1902 129.664 13.2621V24.6976H125.424V10.5353C126.306 10.2335 127.204 9.98187 128.114 9.78168C129.248 9.5318 130.407 9.41239 131.569 9.4258C131.794 9.4258 132.092 9.4258 132.39 9.46767C132.689 9.50954 133.039 9.5357 133.359 9.58281C133.678 9.62991 134.002 9.68748 134.327 9.75028C134.609 9.80553 134.886 9.88611 135.154 9.99103L134.442 13.4923Z" fill="#333333"/>
<path d="M142.8 9.33682C143.863 9.30961 144.924 9.45454 145.94 9.76598C146.695 10.0044 147.38 10.425 147.934 10.9907C148.438 11.5376 148.798 12.2012 148.981 12.9219C149.199 13.7483 149.305 14.6003 149.295 15.455V24.2684C148.688 24.4045 147.84 24.5563 146.762 24.7394C145.463 24.9331 144.15 25.0223 142.837 25.0064C141.958 25.014 141.081 24.9298 140.22 24.7551C139.493 24.6099 138.801 24.3236 138.184 23.9125C137.621 23.5318 137.169 23.0079 136.876 22.3948C136.552 21.6695 136.396 20.8805 136.42 20.0867C136.396 19.3155 136.576 18.5515 136.944 17.8729C137.282 17.2762 137.766 16.7754 138.352 16.4179C138.975 16.0464 139.656 15.7828 140.367 15.6381C141.143 15.4752 141.934 15.3945 142.727 15.3974C143.216 15.3935 143.705 15.4162 144.192 15.4654C144.546 15.498 144.896 15.5611 145.239 15.6538V15.2561C145.253 14.9373 145.202 14.6189 145.09 14.3203C144.978 14.0216 144.806 13.7489 144.585 13.5185C144.145 13.0841 143.386 12.8643 142.308 12.8643C141.594 12.8637 140.88 12.9162 140.173 13.0213C139.554 13.1055 138.946 13.2528 138.357 13.4609L137.833 10.0486C138.079 9.97533 138.388 9.89159 138.76 9.80785C139.131 9.72411 139.529 9.64561 139.969 9.5828C140.408 9.52 140.864 9.4572 141.345 9.41009C141.827 9.36299 142.308 9.33682 142.8 9.33682ZM143.14 21.7406C143.559 21.7406 143.957 21.7406 144.339 21.7092C144.644 21.6986 144.948 21.6706 145.25 21.6254V18.412C145.077 18.3753 144.82 18.3335 144.48 18.2968C144.169 18.2612 143.856 18.2419 143.543 18.2393C143.167 18.2385 142.791 18.263 142.418 18.3125C142.097 18.351 141.784 18.4412 141.492 18.5794C141.243 18.698 141.029 18.8781 140.869 19.1028C140.708 19.3574 140.628 19.6548 140.639 19.9559C140.607 20.2283 140.653 20.5042 140.771 20.7516C140.89 20.999 141.076 21.2076 141.309 21.3533C141.875 21.6388 142.507 21.7723 143.14 21.7406Z" fill="#333333"/>
<path d="M159.919 2.61683C160.657 2.61201 161.393 2.6928 162.112 2.85757C162.634 2.9766 163.147 3.13404 163.645 3.3286L162.818 6.71477C162.424 6.5359 162.009 6.40585 161.583 6.32748C161.176 6.24762 160.763 6.20557 160.348 6.20187C159.908 6.18885 159.469 6.2599 159.055 6.41122C158.735 6.53316 158.45 6.7349 158.229 6.99739C158.024 7.25635 157.878 7.5562 157.799 7.87664C157.713 8.24014 157.671 8.61264 157.674 8.98617V9.72935H162.907V13.2516H157.674V24.6976H153.435V8.93907C153.435 7.00785 153.958 5.46916 155.073 4.33346C156.187 3.19776 157.778 2.61683 159.919 2.61683Z" fill="#333333"/>
<path d="M165.582 6.01346L169.816 5.32785V9.73981H174.908V13.2621H169.816V18.5271C169.782 19.2663 169.945 20.0013 170.287 20.6572C170.601 21.1806 171.229 21.4527 172.176 21.4527C172.648 21.4513 173.119 21.4093 173.584 21.3271C174.036 21.2492 174.479 21.1301 174.908 20.9712L175.505 24.2684C174.95 24.4845 174.38 24.6595 173.799 24.7918C173.043 24.9579 172.27 25.0352 171.496 25.0221C170.517 25.0526 169.541 24.8927 168.623 24.551C167.915 24.2751 167.289 23.8251 166.801 23.2426C166.331 22.6485 166.005 21.9534 165.849 21.212C165.663 20.3416 165.574 19.4536 165.582 18.5637V6.01346Z" fill="#333333"/>
<path d="M79.9179 32.5585V38.3783H78.5834C78.5834 37.9544 78.5834 37.5357 78.5834 37.1222C78.5834 36.7088 78.5834 36.3215 78.5834 35.9656C78.5834 35.6097 78.5834 35.2957 78.5834 35.034C78.5834 34.7723 78.5834 34.5787 78.5834 34.4531C78.3636 34.7409 78.1333 35.0602 77.8925 35.4056L77.186 36.4523C76.9557 36.803 76.7359 37.1432 76.5265 37.4991C76.3172 37.8549 76.1393 38.1323 76.0032 38.3992H74.8413V32.5585H76.1654C76.1654 32.9877 76.1654 33.4011 76.1654 33.7884C76.1654 34.1757 76.1654 34.5316 76.1654 34.8351C76.1654 35.1387 76.1654 35.4318 76.1654 35.6673C76.1654 35.9028 76.1654 36.0912 76.1654 36.1907L76.8092 35.2067C77.0342 34.8665 77.2593 34.5368 77.4843 34.2123C77.7093 33.8878 77.9344 33.5843 78.1594 33.2964C78.3845 33.0086 78.5938 32.7469 78.8032 32.5166L79.9179 32.5585Z" fill="#333333"/>
<path d="M86.8469 38.3783H85.5018V35.9394H83.3089V38.3783H81.9639V32.5585H83.3089V34.8299H85.5018V32.5585H86.8469V38.3783Z" fill="#333333"/>
<path d="M93.2792 33.6837H91.4003V38.394H90.0553V33.6837H88.1816V32.5585H93.2792V33.6837Z" fill="#333333"/>
<path d="M94.2892 35.4946C94.281 35.0358 94.3591 34.5795 94.5194 34.1495C94.6558 33.7914 94.8622 33.464 95.1265 33.1865C95.372 32.9352 95.6682 32.7389 95.9953 32.6108C96.3126 32.4807 96.652 32.4132 96.9949 32.412C97.3429 32.393 97.6908 32.4502 98.0144 32.5794C98.3379 32.7087 98.6295 32.9069 98.8686 33.1604C99.3624 33.7921 99.6031 34.5851 99.5437 35.3847C99.5437 35.4579 99.5437 35.5417 99.5437 35.6359C99.5437 35.7301 99.5437 35.8138 99.5437 35.8871H95.7022C95.7119 36.0936 95.7633 36.2961 95.8532 36.4823C95.9432 36.6684 96.0698 36.8345 96.2256 36.9705C96.5887 37.2488 97.041 37.3847 97.4974 37.3525C97.7981 37.3572 98.0984 37.3274 98.3923 37.2636C98.6125 37.2215 98.828 37.1584 99.0361 37.0751L99.214 38.1794C99.1136 38.2241 99.0104 38.2626 98.9052 38.2946C98.7594 38.3405 98.6108 38.3772 98.4604 38.4045C98.2875 38.4415 98.1128 38.4694 97.937 38.4882C97.7407 38.5112 97.5433 38.5234 97.3456 38.5249C96.8901 38.5337 96.4372 38.4556 96.011 38.2946C95.6348 38.1742 95.2935 37.964 95.0166 37.6822C94.7674 37.4057 94.5801 37.0792 94.4671 36.7245C94.3443 36.3262 94.2843 35.9113 94.2892 35.4946ZM98.1987 34.8979C98.1996 34.7205 98.1732 34.5439 98.1202 34.3746C98.0723 34.2162 97.9941 34.0687 97.8899 33.9402C97.7915 33.816 97.6663 33.7158 97.5235 33.6471C97.359 33.574 97.1802 33.5382 97.0002 33.5424C96.8188 33.5423 96.6399 33.5834 96.4768 33.6628C96.3251 33.7337 96.191 33.8373 96.0843 33.9664C95.9737 34.0939 95.8885 34.2413 95.8331 34.4007C95.7713 34.5698 95.7292 34.7454 95.7075 34.9241L98.1987 34.8979Z" fill="#333333"/>
<path d="M106.541 35.4736C106.546 35.8882 106.488 36.3011 106.369 36.6983C106.257 37.0481 106.079 37.3733 105.845 37.6561C105.629 37.9235 105.353 38.1367 105.039 38.2789C104.695 38.4299 104.322 38.5049 103.946 38.4987C103.689 38.5022 103.434 38.4688 103.187 38.3993C102.991 38.345 102.802 38.2714 102.621 38.1794V40.4351H101.276V32.7469C101.549 32.6736 101.889 32.6056 102.286 32.5376C102.705 32.469 103.129 32.4358 103.553 32.4381C103.974 32.4302 104.393 32.5012 104.788 32.6475C105.139 32.7808 105.456 32.9878 105.72 33.2546C105.982 33.5287 106.184 33.855 106.311 34.2123C106.461 34.616 106.539 35.0429 106.541 35.4736ZM105.16 35.4736C105.189 34.9739 105.047 34.4792 104.757 34.071C104.593 33.8898 104.39 33.7484 104.163 33.6577C103.936 33.567 103.692 33.5293 103.448 33.5477H103.056C102.918 33.5585 102.781 33.5831 102.648 33.6209V36.9443C102.794 37.0417 102.952 37.1191 103.119 37.1746C103.32 37.2465 103.533 37.282 103.747 37.2793C103.954 37.2951 104.162 37.2577 104.35 37.1707C104.539 37.0837 104.702 36.9499 104.825 36.7821C105.056 36.3933 105.172 35.9468 105.16 35.4946V35.4736Z" fill="#333333"/>
<path d="M113.151 38.3783H111.801V35.9394H109.613V38.3783H108.263V32.5585H109.613V34.8299H111.801V32.5585H113.151V38.3783Z" fill="#333333"/>
<path d="M114.873 35.4946C114.863 35.0356 114.941 34.5789 115.104 34.1495C115.238 33.7917 115.443 33.4643 115.706 33.1865C115.953 32.9373 116.249 32.7414 116.574 32.6108C116.894 32.4807 117.235 32.4131 117.579 32.412C117.927 32.393 118.275 32.4502 118.599 32.5794C118.922 32.7087 119.214 32.9069 119.453 33.1604C119.943 33.7937 120.182 34.586 120.123 35.3847C120.123 35.4579 120.123 35.5417 120.123 35.6359C120.129 35.7195 120.129 35.8035 120.123 35.8871H116.287C116.292 36.0914 116.338 36.2925 116.423 36.4786C116.507 36.6647 116.628 36.832 116.779 36.9705C117.143 37.2496 117.597 37.3855 118.056 37.3525C118.356 37.3567 118.656 37.3268 118.95 37.2635C119.169 37.2216 119.383 37.1585 119.589 37.0751L119.746 38.2056C119.647 38.2504 119.546 38.2889 119.442 38.3207C119.296 38.366 119.148 38.4026 118.998 38.4306C118.825 38.4675 118.65 38.4954 118.474 38.5144C118.28 38.5373 118.084 38.5496 117.888 38.551C117.433 38.5604 116.979 38.4822 116.553 38.3207C116.188 38.1868 115.86 37.968 115.596 37.6822C115.356 37.4033 115.178 37.077 115.072 36.7245C114.94 36.328 114.873 35.9126 114.873 35.4946ZM118.804 34.8979C118.805 34.7205 118.778 34.5439 118.725 34.3746C118.679 34.2165 118.603 34.069 118.5 33.9402C118.4 33.8162 118.273 33.7161 118.129 33.6471C117.964 33.5744 117.786 33.5369 117.605 33.5369C117.425 33.5369 117.247 33.5744 117.082 33.6471C116.93 33.7193 116.794 33.8227 116.684 33.9507C116.576 34.0795 116.491 34.2266 116.433 34.385C116.373 34.5543 116.333 34.7299 116.313 34.9084L118.804 34.8979Z" fill="#333333"/>
<path d="M126.267 33.6837H124.388V38.394H123.038V33.6837H121.169V32.5585H126.267V33.6837Z" fill="#333333"/>
<path d="M126.701 34.5839H129.695V35.8191H126.701V34.5839Z" fill="#333333"/>
<path d="M132.495 34.5421C132.495 34.8508 132.453 35.1753 132.427 35.5155C132.401 35.8557 132.39 36.1854 132.374 36.5204C132.359 36.8553 132.343 37.1798 132.327 37.4886C132.312 37.7974 132.301 38.0905 132.296 38.3574H130.993C130.993 37.9282 131.029 37.4624 131.061 36.96C131.092 36.4576 131.124 35.9499 131.165 35.437C131.207 34.9241 131.249 34.3903 131.296 33.9192C131.343 33.4482 131.385 32.9615 131.438 32.5376H132.605C132.918 33.0607 133.203 33.6005 133.458 34.1548C133.746 34.7671 134.07 35.4632 134.426 36.2482L135.436 34.092C135.676 33.567 135.947 33.0567 136.247 32.5637H137.425C137.477 32.9877 137.524 33.4482 137.577 33.9454C137.629 34.4426 137.666 34.945 137.702 35.4632C137.739 35.9813 137.775 36.5099 137.802 36.9862C137.828 37.4624 137.854 37.9544 137.87 38.3835H136.546C136.546 37.7764 136.509 37.1484 136.472 36.4994C136.436 35.8505 136.399 35.2067 136.357 34.5682C136.247 34.788 136.127 35.0392 135.996 35.3114C135.865 35.5835 135.74 35.8662 135.614 36.1488C135.488 36.4314 135.368 36.7035 135.248 36.9652L134.939 37.6822H133.934C133.845 37.4781 133.74 37.2478 133.62 36.9809C133.5 36.714 133.369 36.4576 133.243 36.1592C133.118 35.8609 132.987 35.5992 132.861 35.3271C132.735 35.055 132.605 34.7828 132.495 34.5421Z" fill="#333333"/>
<path d="M141.717 32.412C142.099 32.4029 142.479 32.4596 142.842 32.5794C143.12 32.6739 143.37 32.8357 143.57 33.0505C143.758 33.2574 143.892 33.5071 143.962 33.7779C144.042 34.0854 144.081 34.4022 144.077 34.72V38.2422C143.868 38.2893 143.554 38.3417 143.135 38.4045C142.665 38.4708 142.191 38.5023 141.717 38.4987C141.397 38.5021 141.077 38.4687 140.764 38.3993C140.498 38.3432 140.245 38.2347 140.021 38.08C139.818 37.9277 139.654 37.7284 139.545 37.4991C139.424 37.2277 139.365 36.9326 139.372 36.6355C139.362 36.3408 139.428 36.0486 139.566 35.7877C139.694 35.5622 139.873 35.3703 140.089 35.2277C140.327 35.0799 140.589 34.9753 140.864 34.9189C141.165 34.8552 141.472 34.8236 141.78 34.8247C141.935 34.8147 142.09 34.8147 142.245 34.8247C142.422 34.8422 142.597 34.8737 142.769 34.9189V34.6938C142.77 34.5439 142.753 34.3945 142.716 34.249C142.68 34.1125 142.614 33.9857 142.523 33.8774C142.419 33.767 142.292 33.6812 142.151 33.6262C141.968 33.5624 141.775 33.5323 141.581 33.5372C141.293 33.5369 141.006 33.5597 140.722 33.6052C140.508 33.6414 140.296 33.6939 140.089 33.7622L139.922 32.6736C140.166 32.5941 140.416 32.5329 140.67 32.4905C141.016 32.4337 141.366 32.4074 141.717 32.412ZM141.832 37.431C142.147 37.4397 142.463 37.4169 142.774 37.363V35.8766C142.67 35.8443 142.563 35.8216 142.455 35.8086C142.299 35.7847 142.141 35.7725 141.984 35.772C141.833 35.774 141.683 35.7862 141.534 35.8086C141.392 35.8273 141.254 35.8679 141.125 35.929C141.006 35.9863 140.904 36.0727 140.827 36.1802C140.751 36.3023 140.712 36.4444 140.717 36.5884C140.703 36.715 140.723 36.8431 140.776 36.9592C140.828 37.0753 140.911 37.175 141.016 37.2478C141.265 37.3834 141.548 37.4468 141.832 37.431Z" fill="#333333"/>
<path d="M149.918 33.6733H147.405V38.3835H146.055V32.5585H149.918V33.6733Z" fill="#333333"/>
<path d="M153.189 32.412C153.571 32.4029 153.952 32.4596 154.314 32.5794C154.591 32.6753 154.841 32.8369 155.042 33.0505C155.228 33.2578 155.361 33.5075 155.429 33.7779C155.511 34.0851 155.552 34.402 155.549 34.72V38.2422C155.34 38.2893 155.026 38.3417 154.607 38.4045C154.138 38.4708 153.663 38.5023 153.189 38.4987C152.867 38.5025 152.546 38.4691 152.231 38.3993C151.967 38.3423 151.716 38.2338 151.493 38.08C151.288 37.9284 151.123 37.729 151.012 37.4991C150.893 37.2215 150.836 36.9215 150.844 36.6198C150.834 36.3251 150.901 36.0329 151.038 35.772C151.163 35.5449 151.343 35.3525 151.561 35.212C151.797 35.0633 152.058 34.9587 152.331 34.9032C152.634 34.8394 152.942 34.8079 153.252 34.809C153.407 34.799 153.562 34.799 153.718 34.809C153.894 34.8269 154.069 34.8584 154.241 34.9032V34.6781C154.241 34.528 154.221 34.3785 154.183 34.2333C154.149 34.096 154.082 33.9687 153.99 33.8617C153.888 33.7513 153.763 33.6653 153.623 33.6105C153.44 33.5472 153.247 33.517 153.053 33.5215C152.765 33.521 152.478 33.5438 152.195 33.5895C151.98 33.625 151.768 33.6775 151.561 33.7465L151.394 32.6579C151.637 32.5783 151.885 32.5171 152.137 32.4748C152.485 32.4232 152.837 32.4022 153.189 32.412ZM153.299 37.431C153.616 37.4399 153.933 37.4171 154.246 37.363V35.8766C154.14 35.8444 154.032 35.8217 153.922 35.8086C153.768 35.7848 153.612 35.7726 153.456 35.772C153.305 35.774 153.155 35.7862 153.006 35.8086C152.863 35.8281 152.723 35.8686 152.592 35.929C152.476 35.9877 152.375 36.0739 152.299 36.1802C152.223 36.3023 152.184 36.4444 152.189 36.5884C152.175 36.715 152.195 36.8431 152.248 36.9592C152.3 37.0753 152.383 37.175 152.488 37.2478C152.736 37.3835 153.017 37.447 153.299 37.431Z" fill="#333333"/>
<path d="M157.271 32.7364C157.388 32.6939 157.507 32.6572 157.627 32.6265C157.768 32.5899 157.92 32.5533 158.082 32.5271C158.245 32.5009 158.422 32.4748 158.606 32.4538C158.78 32.4444 158.955 32.4444 159.129 32.4538C159.437 32.4508 159.744 32.4806 160.045 32.5428C160.312 32.5914 160.567 32.689 160.799 32.8307C161.012 32.9609 161.192 33.1404 161.322 33.354C161.457 33.5779 161.524 33.836 161.516 34.0972C161.525 34.3816 161.436 34.6607 161.264 34.8875C161.107 35.0905 160.905 35.2537 160.673 35.3637C160.979 35.4713 161.246 35.666 161.442 35.9237C161.627 36.1984 161.721 36.5244 161.709 36.8553C161.716 37.1287 161.648 37.3986 161.51 37.6351C161.382 37.8501 161.202 38.0299 160.987 38.1585C160.741 38.3041 160.472 38.4068 160.191 38.4621C159.866 38.527 159.534 38.5586 159.202 38.5563C158.8 38.5589 158.399 38.5221 158.004 38.4464C157.702 38.3976 157.407 38.3151 157.125 38.2004L157.355 37.1065C157.576 37.1939 157.803 37.2639 158.035 37.3159C158.396 37.3963 158.765 37.4349 159.134 37.431C159.951 37.431 160.359 37.1955 160.359 36.7193C160.366 36.5734 160.328 36.4288 160.249 36.3058C160.177 36.2042 160.082 36.1216 159.972 36.065C159.852 36.0113 159.725 35.9743 159.595 35.9551C159.457 35.9477 159.319 35.9477 159.181 35.9551H158.056V34.8979H159.16C159.405 34.903 159.646 34.851 159.867 34.7462C159.964 34.6995 160.043 34.6243 160.096 34.5306C160.148 34.437 160.171 34.3296 160.16 34.2228C160.161 34.1224 160.135 34.0235 160.086 33.9362C160.036 33.8489 159.964 33.7763 159.877 33.7256C159.635 33.5912 159.359 33.5278 159.082 33.5424C158.93 33.5425 158.777 33.553 158.627 33.5738C158.47 33.5738 158.318 33.6157 158.176 33.6419L157.779 33.7361C157.684 33.7631 157.592 33.7963 157.501 33.8355L157.271 32.7364Z" fill="#333333"/>
<path d="M168.524 32.5585V38.3783H167.189C167.189 37.9544 167.189 37.5357 167.189 37.1222C167.189 36.7088 167.189 36.3215 167.189 35.9656C167.189 35.6097 167.189 35.2957 167.189 35.034C167.189 34.7723 167.189 34.5787 167.189 34.4531C166.964 34.7409 166.734 35.0602 166.498 35.4056C166.263 35.751 166.022 36.1069 165.792 36.4523C165.561 36.7978 165.336 37.1432 165.127 37.4991C164.918 37.8549 164.74 38.1323 164.604 38.3992H163.416V32.5585H164.74C164.74 32.9877 164.74 33.4011 164.74 33.7884C164.74 34.1757 164.74 34.5316 164.74 34.8351C164.74 35.1387 164.74 35.4318 164.74 35.6673C164.74 35.9028 164.74 36.0912 164.74 36.1907C164.949 35.8714 165.164 35.5417 165.389 35.2067C165.614 34.8718 165.833 34.5368 166.059 34.2123C166.284 33.8878 166.509 33.5843 166.734 33.2964C166.959 33.0086 167.168 32.7469 167.377 32.5166L168.524 32.5585Z" fill="#333333"/>
<path d="M175.453 38.3783H174.102V35.9394H171.915V38.3783H170.564V32.5585H171.915V34.8299H174.102V32.5585H175.453V38.3783Z" fill="#333333"/>
<path d="M83.1417 44.6953V50.5151H81.8071C81.8071 50.0912 81.8071 49.6725 81.8071 49.2591C81.8071 48.8456 81.8071 48.4583 81.8071 48.1024C81.8071 47.7465 81.8071 47.4325 81.8071 47.1708C81.8071 46.9092 81.8071 46.7155 81.8071 46.5899C81.5821 46.8778 81.3518 47.197 81.1163 47.5424L80.4098 48.5892C80.1742 48.9398 79.9544 49.28 79.7451 49.6359C79.5357 49.9918 79.3578 50.2692 79.2217 50.5361H78.0337V44.6953H79.3578C79.3578 45.1245 79.3578 45.5379 79.3578 45.9252C79.3578 46.3125 79.3578 46.6684 79.3578 46.972C79.3578 47.2755 79.3578 47.5686 79.3578 47.8041C79.3578 48.0396 79.3578 48.228 79.3578 48.3275C79.5619 48.0082 79.7765 47.6785 80.0015 47.3436C80.2266 47.0086 80.4464 46.6736 80.6714 46.3492C80.8965 46.0247 81.1268 45.7211 81.3466 45.4333C81.5664 45.1454 81.7862 44.9099 81.9903 44.6535L83.1417 44.6953Z" fill="#333333"/>
<path d="M84.9369 44.8733C85.0534 44.83 85.1722 44.7933 85.2928 44.7634C85.4341 44.7267 85.5859 44.6901 85.7481 44.6639C85.9212 44.6302 86.0959 44.6057 86.2715 44.5907C86.4458 44.5811 86.6205 44.5811 86.7949 44.5907C87.1007 44.5876 87.406 44.6174 87.7055 44.6796C87.9743 44.7273 88.2317 44.8249 88.4644 44.9675C88.6781 45.0977 88.8575 45.2772 88.9878 45.4908C89.1202 45.7157 89.1873 45.9731 89.1814 46.234C89.1915 46.5194 89.1007 46.7992 88.925 47.0243C88.7698 47.229 88.5667 47.3926 88.3336 47.5006C88.6392 47.6081 88.9066 47.8028 89.1029 48.0606C89.2879 48.3352 89.3813 48.6612 89.3698 48.9921C89.3786 49.265 89.3116 49.5349 89.1762 49.772C89.0459 49.9856 88.8665 50.1651 88.6528 50.2953C88.4065 50.4391 88.1375 50.54 87.8573 50.5936C87.5318 50.6604 87.2004 50.6937 86.8681 50.6931C86.4643 50.6958 86.0611 50.659 85.6644 50.5832C85.363 50.5344 85.0681 50.4519 84.7852 50.3372L85.0207 49.2434C85.2401 49.3301 85.4658 49.4001 85.6958 49.4527C86.0583 49.5331 86.4288 49.5717 86.8001 49.5678C87.6166 49.5678 88.0248 49.3271 88.0248 48.8561C88.0328 48.7094 87.9923 48.5641 87.9096 48.4426C87.8381 48.341 87.7429 48.2584 87.6323 48.2019C87.5128 48.1467 87.3858 48.1097 87.2554 48.092C87.1177 48.0843 86.9797 48.0843 86.842 48.092H85.7324V47.0348H86.8315C87.0757 47.0412 87.318 46.9891 87.538 46.883C87.6356 46.8371 87.7167 46.7622 87.7701 46.6685C87.8235 46.5749 87.8466 46.467 87.8364 46.3596C87.8361 46.2588 87.8094 46.1598 87.7589 46.0726C87.7084 45.9853 87.6358 45.9128 87.5485 45.8624C87.3057 45.7281 87.0301 45.6646 86.753 45.6793C86.6007 45.6796 86.4486 45.6901 86.2977 45.7107C86.1407 45.7107 85.9941 45.7525 85.8476 45.7787L85.4551 45.8729L85.1724 45.9671L84.9369 44.8733Z" fill="#333333"/>
<path d="M90.3745 49.4108H91.0654C91.2913 49.1015 91.4679 48.759 91.5887 48.3955C91.7209 48.0131 91.8156 47.6187 91.8713 47.2179C91.9296 46.7979 91.9663 46.3752 91.9812 45.9514C91.9812 45.5222 91.9812 45.1036 92.0179 44.6953H96.2048V49.4056H97.0945V52.1585H95.8908V50.5151H91.5887V52.1637H90.3955L90.3745 49.4108ZM94.8388 49.4108V45.8101H93.2687C93.2687 46.1136 93.2321 46.4224 93.2112 46.7365C93.1894 47.0508 93.1492 47.3636 93.0908 47.6733C93.0297 47.9781 92.9493 48.2788 92.85 48.5735C92.7505 48.8662 92.6189 49.1471 92.4575 49.4108H94.8388Z" fill="#333333"/>
<path d="M98.1415 47.6262C98.1316 47.1677 98.208 46.7114 98.3665 46.2811C98.5036 45.9233 98.7099 45.5961 98.9736 45.3181C99.2208 45.0689 99.5165 44.873 99.8424 44.7424C100.16 44.6145 100.499 44.5487 100.842 44.5488C101.19 44.5284 101.539 44.5844 101.864 44.7127C102.188 44.8411 102.481 45.0388 102.721 45.292C103.211 45.9253 103.45 46.7176 103.391 47.5163C103.391 47.5895 103.391 47.6733 103.391 47.7675C103.391 47.8617 103.391 47.9454 103.391 48.0187H99.5546C99.56 48.223 99.6063 48.4241 99.6908 48.6102C99.7753 48.7963 99.8962 48.9635 100.047 49.102C100.411 49.3812 100.865 49.5171 101.324 49.4841C101.624 49.4882 101.924 49.4584 102.218 49.3951C102.437 49.3532 102.651 49.2901 102.857 49.2067L103.035 50.311C102.936 50.3558 102.835 50.3943 102.731 50.4262C102.585 50.4714 102.437 50.5081 102.287 50.5361C102.114 50.5729 101.939 50.6008 101.763 50.6198C101.569 50.6428 101.373 50.655 101.177 50.6564C100.721 50.6658 100.268 50.5876 99.8424 50.4262C99.4851 50.2909 99.1643 50.074 98.9056 49.7929C98.6657 49.514 98.4874 49.1876 98.3822 48.8351C98.2377 48.4477 98.1564 48.0395 98.1415 47.6262ZM102.056 47.0348C102.057 46.8573 102.03 46.6808 101.978 46.5114C101.932 46.3533 101.855 46.2058 101.753 46.077C101.651 45.9541 101.524 45.8542 101.381 45.7839C101.217 45.7094 101.038 45.6736 100.858 45.6792C100.668 45.6758 100.479 45.717 100.308 45.7996C100.158 45.8732 100.025 45.9765 99.9157 46.1032C99.8051 46.2307 99.7199 46.3781 99.6645 46.5376C99.6044 46.7068 99.564 46.8824 99.5441 47.0609L102.056 47.0348Z" fill="#333333"/>
<path d="M107.431 45.8101C107.431 46.1346 107.431 46.4748 107.399 46.8254C107.385 47.1763 107.348 47.5259 107.289 47.8722C107.238 48.2069 107.15 48.5351 107.028 48.8508C106.914 49.1581 106.747 49.4432 106.536 49.6935C106.314 49.9489 106.046 50.1602 105.746 50.3163C105.385 50.4936 104.995 50.6002 104.594 50.6303L104.406 49.505C104.724 49.4567 105.025 49.3329 105.285 49.1439C105.494 48.9738 105.658 48.7544 105.761 48.5054C105.856 48.2965 105.924 48.0768 105.965 47.8512C106.018 47.5954 106.057 47.3368 106.081 47.0766C106.107 46.8045 106.122 46.5533 106.128 46.2497C106.133 45.9462 106.128 45.6897 106.128 45.4228V44.6953H110.247V50.5151H108.912V45.8049L107.431 45.8101Z" fill="#333333"/>
<path d="M117.401 44.6953V50.5151H116.066C116.066 50.0912 116.066 49.6725 116.066 49.2591C116.066 48.8456 116.066 48.4583 116.066 48.1024C116.066 47.7465 116.066 47.4325 116.066 47.1708C116.066 46.9092 116.066 46.7155 116.066 46.5899C115.841 46.8778 115.611 47.197 115.376 47.5424L114.669 48.5892C114.433 48.9398 114.214 49.28 114.01 49.6359C113.805 49.9918 113.617 50.2692 113.46 50.5361H112.272V44.6953H113.596C113.596 45.1245 113.596 45.5379 113.596 45.9252C113.596 46.3125 113.596 46.6684 113.596 46.972C113.596 47.2755 113.596 47.5686 113.596 47.8041C113.596 48.0396 113.596 48.228 113.596 48.3275C113.8 48.0082 114.015 47.6785 114.24 47.3436C114.465 47.0086 114.685 46.6736 114.915 46.3492C115.145 46.0247 115.365 45.7211 115.585 45.4333C115.805 45.1454 116.024 44.9099 116.234 44.6535L117.401 44.6953Z" fill="#333333"/>
<path d="M124.561 44.6953V50.5151H123.226C123.226 50.0912 123.226 49.6725 123.226 49.2591C123.226 48.8456 123.226 48.4583 123.226 48.1024C123.226 47.7465 123.226 47.4325 123.226 47.1708C123.226 46.9092 123.226 46.7155 123.226 46.5899C123.001 46.8778 122.771 47.197 122.535 47.5424C122.3 47.8879 122.059 48.2437 121.829 48.5892C121.598 48.9346 121.373 49.28 121.164 49.6359C120.955 49.9918 120.777 50.2692 120.641 50.5361H119.453V44.6953H120.777C120.777 45.1245 120.777 45.5379 120.777 45.9252C120.777 46.3125 120.777 46.6684 120.777 46.972C120.777 47.2755 120.777 47.5686 120.777 47.8041C120.777 48.0396 120.777 48.228 120.777 48.3275C120.986 48.0082 121.201 47.6785 121.426 47.3436C121.651 47.0086 121.871 46.6736 122.096 46.3492C122.321 46.0247 122.546 45.7211 122.771 45.4333C122.996 45.1454 123.21 44.9099 123.414 44.6535L124.561 44.6953ZM122.017 43.8265C121.792 43.8294 121.567 43.7958 121.352 43.7271C121.154 43.663 120.968 43.5657 120.803 43.4393C120.64 43.3128 120.504 43.1565 120.4 42.9787C120.293 42.789 120.229 42.5782 120.212 42.3611L121.18 42.1047C121.305 42.628 121.583 42.895 122.017 42.895C122.452 42.895 122.729 42.6333 122.849 42.1151L123.807 42.3716C123.781 42.5876 123.715 42.7969 123.613 42.9892C123.516 43.1669 123.382 43.322 123.221 43.4445C123.055 43.5694 122.869 43.665 122.671 43.7271C122.453 43.797 122.225 43.8305 121.996 43.8265H122.017Z" fill="#333333"/>
<path d="M134.61 44.6953V50.5151H133.275C133.275 50.0912 133.275 49.6725 133.275 49.2591C133.275 48.8456 133.275 48.4583 133.275 48.1024C133.275 47.7465 133.275 47.4325 133.275 47.1708C133.275 46.9092 133.275 46.7155 133.275 46.5899C133.055 46.8778 132.825 47.197 132.589 47.5424C132.354 47.8878 132.113 48.2437 131.883 48.5892C131.653 48.9346 131.427 49.28 131.218 49.6359C131.009 49.9918 130.831 50.2692 130.695 50.5361H129.501V44.6953H130.841C130.841 45.1245 130.841 45.5379 130.841 45.9252C130.841 46.3125 130.841 46.6684 130.841 46.972C130.841 47.2755 130.841 47.5686 130.841 47.8041C130.841 48.0396 130.841 48.228 130.841 48.3275L131.485 47.3436C131.71 47.0034 131.935 46.6736 132.16 46.3492C132.385 46.0247 132.61 45.7211 132.835 45.4333C133.06 45.1454 133.27 44.9099 133.479 44.6535L134.61 44.6953Z" fill="#333333"/>
<path d="M136.399 44.8733C136.516 44.8307 136.635 44.794 136.755 44.7634C136.897 44.7267 137.048 44.6901 137.211 44.6639C137.373 44.6378 137.551 44.6064 137.734 44.5907C137.919 44.5801 138.104 44.5801 138.289 44.5907C138.595 44.5876 138.9 44.6174 139.199 44.6796C139.466 44.7283 139.722 44.8259 139.953 44.9675C140.168 45.0961 140.348 45.2759 140.476 45.4908C140.611 45.7147 140.679 45.9728 140.67 46.234C140.679 46.5185 140.591 46.7975 140.419 47.0243C140.262 47.2273 140.059 47.3905 139.827 47.5006C140.133 47.6081 140.401 47.8028 140.597 48.0606C140.782 48.3352 140.875 48.6612 140.864 48.9921C140.872 49.2562 140.808 49.5175 140.679 49.748C140.55 49.9785 140.36 50.1695 140.131 50.3006C139.885 50.4443 139.616 50.5452 139.335 50.5989C139.01 50.6657 138.679 50.699 138.346 50.6983C137.944 50.7008 137.543 50.6639 137.148 50.5884C136.846 50.5396 136.551 50.4571 136.269 50.3424L136.499 49.2486C136.72 49.3352 136.948 49.4051 137.179 49.4579C137.54 49.5381 137.909 49.5767 138.278 49.5731C139.095 49.5731 139.503 49.3323 139.503 48.8613C139.51 48.7154 139.472 48.5709 139.393 48.4478C139.322 48.3462 139.226 48.2636 139.116 48.2071C138.996 48.1527 138.869 48.1156 138.739 48.0972C138.601 48.0896 138.463 48.0896 138.325 48.0972H137.211V47.0348H138.315C138.559 47.0398 138.801 46.9878 139.021 46.883C139.118 46.8363 139.198 46.7611 139.25 46.6675C139.303 46.5739 139.325 46.4664 139.315 46.3596C139.315 46.2592 139.29 46.1604 139.24 46.0731C139.19 45.9858 139.119 45.9131 139.032 45.8624C138.789 45.7281 138.514 45.6646 138.236 45.6793C138.084 45.6796 137.932 45.6901 137.781 45.7107C137.624 45.7107 137.472 45.7525 137.331 45.7787L136.933 45.8729L136.656 45.9671L136.399 44.8733Z" fill="#333333"/>
<path d="M145.155 47.6262C145.152 47.2144 145.221 46.8052 145.359 46.4172C145.484 46.0587 145.678 45.728 145.93 45.4437C146.184 45.1685 146.492 44.9492 146.835 44.8C147.216 44.64 147.626 44.5616 148.039 44.5697C148.577 44.5645 149.111 44.6659 149.609 44.868L149.321 45.9671C149.151 45.8984 148.976 45.8424 148.798 45.7996C148.591 45.7565 148.381 45.7354 148.17 45.7368C147.946 45.7215 147.721 45.7579 147.513 45.8432C147.306 45.9285 147.12 46.0604 146.971 46.2288C146.665 46.6279 146.513 47.1239 146.542 47.6262C146.517 48.1151 146.653 48.5988 146.93 49.0026C147.092 49.1865 147.296 49.3297 147.524 49.4206C147.752 49.5115 147.999 49.5476 148.243 49.526C148.471 49.5261 148.699 49.5051 148.924 49.4632C149.12 49.4225 149.312 49.3665 149.499 49.2957L149.688 50.4052C149.474 50.502 149.249 50.5706 149.018 50.6093C148.711 50.6684 148.399 50.6982 148.086 50.6983C147.644 50.7075 147.205 50.6292 146.794 50.468C146.444 50.3299 146.13 50.1132 145.878 49.8348C145.638 49.5515 145.46 49.2219 145.354 48.8665C145.225 48.4656 145.158 48.0473 145.155 47.6262Z" fill="#333333"/>
<path d="M155.591 45.8206H153.712V50.5308H152.367V45.8206H150.499V44.6953H155.591V45.8206Z" fill="#333333"/>
<path d="M158.862 44.554C159.244 44.5435 159.624 44.5984 159.987 44.7163C160.264 44.8121 160.514 44.9737 160.715 45.1873C160.903 45.3942 161.038 45.6439 161.107 45.9148C161.185 46.2226 161.224 46.5392 161.222 46.8568V50.3791C161.013 50.4262 160.699 50.4785 160.28 50.5413C159.81 50.6077 159.336 50.6392 158.862 50.6355C158.54 50.6393 158.219 50.6059 157.904 50.5361C157.642 50.4871 157.391 50.3876 157.166 50.243C156.963 50.0907 156.799 49.8914 156.69 49.6621C156.566 49.3859 156.507 49.0852 156.517 48.7828C156.506 48.4898 156.573 48.199 156.711 47.9402C156.837 47.7121 157.017 47.5181 157.234 47.3749C157.469 47.2251 157.73 47.1203 158.004 47.0662C158.307 47.0027 158.615 46.9711 158.925 46.972C159.08 46.962 159.235 46.962 159.391 46.972C159.567 46.9899 159.742 47.0214 159.914 47.0662V46.8411C159.916 46.6908 159.897 46.541 159.856 46.3963C159.821 46.2594 159.754 46.1323 159.663 46.0247C159.562 45.9132 159.437 45.8272 159.296 45.7735C159.113 45.7097 158.92 45.6796 158.726 45.6845C158.438 45.6842 158.151 45.707 157.868 45.7525C157.652 45.7855 157.44 45.8381 157.234 45.9095L157.067 44.8209C157.309 44.7416 157.558 44.6821 157.81 44.643C158.157 44.5801 158.509 44.5503 158.862 44.554ZM158.972 49.5678C159.289 49.5767 159.606 49.5539 159.919 49.4998V48.0135C159.813 47.9813 159.705 47.9585 159.595 47.9454C159.44 47.9233 159.285 47.9128 159.129 47.914C158.978 47.9142 158.828 47.9247 158.679 47.9454C158.536 47.9649 158.396 48.0055 158.265 48.0658C158.149 48.1246 158.048 48.2108 157.972 48.317C157.896 48.4391 157.857 48.5812 157.862 48.7252C157.848 48.8518 157.868 48.98 157.921 49.0961C157.973 49.2121 158.056 49.3119 158.161 49.3847C158.409 49.5203 158.69 49.5838 158.972 49.5678Z" fill="#333333"/>
<path d="M165.482 45.8101C165.482 46.1346 165.482 46.4748 165.451 46.8254C165.436 47.1763 165.4 47.5259 165.341 47.8722C165.29 48.2069 165.202 48.5351 165.079 48.8508C164.966 49.1581 164.799 49.4432 164.588 49.6935C164.37 49.9455 164.107 50.1549 163.813 50.311C163.453 50.4883 163.062 50.5949 162.662 50.625L162.473 49.4998C162.791 49.4515 163.092 49.3276 163.352 49.1387C163.562 48.9686 163.725 48.7492 163.829 48.5002C163.923 48.2912 163.992 48.0715 164.033 47.846C164.086 47.5902 164.124 47.3316 164.148 47.0714C164.174 46.7993 164.19 46.548 164.195 46.2445C164.2 45.9409 164.195 45.6845 164.195 45.4176V44.6953H168.314V50.5151H166.953V45.8049L165.482 45.8101Z" fill="#333333"/>
<path d="M175.453 44.6953V50.5151H174.118C174.118 50.0912 174.118 49.6725 174.118 49.2591C174.118 48.8456 174.118 48.4583 174.118 48.1024C174.118 47.7465 174.118 47.4325 174.118 47.1708C174.118 46.9092 174.118 46.7155 174.118 46.5899C173.893 46.8778 173.663 47.197 173.427 47.5424L172.721 48.5892C172.485 48.9398 172.265 49.28 172.061 49.6359C171.857 49.9918 171.669 50.2692 171.512 50.5361H170.355V44.6953H171.663C171.663 45.1245 171.663 45.5379 171.663 45.9252C171.663 46.3125 171.663 46.6684 171.663 46.972C171.663 47.2755 171.663 47.5686 171.663 47.8041C171.663 48.0396 171.663 48.228 171.663 48.3275C171.868 48.0082 172.082 47.6785 172.307 47.3436C172.532 47.0086 172.752 46.6736 172.982 46.3492C173.213 46.0247 173.432 45.7211 173.652 45.4333C173.872 45.1454 174.092 44.9099 174.301 44.6535L175.453 44.6953Z" fill="#333333"/>
<path d="M27.7802 55.5604C43.1228 55.5604 55.5604 43.1228 55.5604 27.7802C55.5604 12.4376 43.1228 0 27.7802 0C12.4376 0 0 12.4376 0 27.7802C0 43.1228 12.4376 55.5604 27.7802 55.5604Z" fill="#555555"/>
<path d="M55.2411 31.7264L27.7802 13.4557L16.9937 39.7757L37.8393 53.6449C42.4225 51.862 46.4493 48.8927 49.5071 45.0412C52.565 41.1897 54.5439 36.5944 55.2411 31.7264Z" fill="#333333"/>
<path d="M42.3924 23.1746L27.7801 13.4557L19.4063 19.0348V16.2505C19.4063 16.095 19.3445 15.9459 19.2346 15.836C19.1247 15.7261 18.9756 15.6643 18.8201 15.6643H16.5696C16.4927 15.6643 16.4164 15.6795 16.3453 15.7089C16.2742 15.7384 16.2096 15.7815 16.1552 15.836C16.1007 15.8904 16.0575 15.955 16.0281 16.0261C15.9986 16.0973 15.9835 16.1735 15.9835 16.2505V21.3114L13.1835 23.1746C13.1198 23.2168 13.0652 23.2712 13.0226 23.3345C12.98 23.3979 12.9503 23.4691 12.9353 23.5439C12.9202 23.6188 12.92 23.6959 12.9348 23.7708C12.9495 23.8457 12.9789 23.917 13.0212 23.9806C13.1075 24.1094 13.2413 24.1988 13.3933 24.2292C13.5454 24.2596 13.7033 24.2285 13.8324 24.1428L16.0672 22.6564C16.0134 22.849 15.9852 23.0479 15.9835 23.2478V37.9282C15.9835 38.2318 16.0433 38.5323 16.1597 38.8127C16.276 39.0931 16.4464 39.3477 16.6613 39.5621C16.8762 39.7765 17.1313 39.9464 17.4119 40.0621C17.6925 40.1778 17.9932 40.2369 18.2967 40.2363H37.2739C37.5775 40.2369 37.8782 40.1778 38.1588 40.0621C38.4394 39.9464 38.6945 39.7765 38.9093 39.5621C39.1242 39.3477 39.2947 39.0931 39.411 38.8127C39.5273 38.5323 39.5872 38.2318 39.5872 37.9282V23.274C39.5846 23.0745 39.5583 22.8759 39.5087 22.6826L41.7382 24.169C41.8701 24.2557 42.031 24.2865 42.1856 24.2546C42.3402 24.2227 42.4758 24.1307 42.5625 23.9989C42.6493 23.867 42.6801 23.7061 42.6482 23.5515C42.6163 23.3969 42.5243 23.2613 42.3924 23.1746Z" fill="white"/>
<path d="M37.2741 40.2363C37.5776 40.2369 37.8783 40.1778 38.159 40.0621C38.4396 39.9464 38.6946 39.7765 38.9095 39.5621C39.1244 39.3477 39.2949 39.0931 39.4112 38.8127C39.5275 38.5323 39.5874 38.2318 39.5874 37.9282V23.274C39.5848 23.0745 39.5584 22.8759 39.5089 22.6826L41.7384 24.169C41.8703 24.2557 42.0312 24.2865 42.1858 24.2546C42.3404 24.2227 42.4759 24.1307 42.5627 23.9989C42.6495 23.867 42.6803 23.7061 42.6484 23.5515C42.6165 23.3969 42.5245 23.2613 42.3926 23.1746L27.7803 13.4557V40.2363H37.2741Z" fill="#DADADA"/>
</g>
<defs>
<clipPath id="clip0_4836_120819">
<rect width="175.85" height="56" fill="white"/>
</clipPath>
</defs>
</svg>
