<?xml version="1.0"?>
<svg xmlns="http://www.w3.org/2000/svg" id="icons" enable-background="new 0 0 64 64" height="512px" viewBox="0 0 64 64" width="512px" class=""><g><path d="m63 10.992h-24.004-3c-.553 0-1 .447-1 1v37.016 3c0 .553.447 1 1 1h27.004c.553 0 1-.447 1-1v-3-37.016c0-.553-.447-1-1-1zm-26.004 39.016h2 20.004v1h-22.004zm3-2v-35.016h22.004v35.016zm21.004 2h1v1h-1zm-24.004-37.016h1v35.016h-1z" data-original="#000000" class="active-path" data-old_color="#2c3e50" fill="#2c3e50"/><path d="m1 25.992h22.998c.553 0 1-.447 1-1v-13c0-.553-.447-1-1-1h-22.998c-.553 0-1 .447-1 1v13c0 .553.447 1 1 1zm1-13h10.501 10.497v11h-10.497-10.501z" data-original="#000000" class="active-path" data-old_color="#2c3e50" fill="#2c3e50"/><path d="m1 42.992h22.998c.553 0 1-.447 1-1v-13c0-.553-.447-1-1-1h-22.998c-.553 0-1 .447-1 1v13c0 .553.447 1 1 1zm1-13h20.998v11h-20.998z" data-original="#000000" class="active-path" data-old_color="#2c3e50" fill="#2c3e50"/><path d="m32.002 52.996c.553 0 1-.447 1-1v-36c0-.005-.003-.01-.004-.015-.001-.137-.035-.271-.094-.398-.005-.011-.003-.023-.008-.034l-2.001-4.004c-.338-.678-1.451-.678-1.789 0l-2 4.004c-.006.011-.003.023-.008.035-.061.131-.098.271-.098.412v36c0 .553.447 1 1 1zm-2.709-34.295c.195.195.451.293.707.293s.512-.098.707-.293l.295-.295v10.476c-.06-.495-.466-.884-.977-.884h-.011c-.552 0-.994.447-.994 1s.452 1 1.005 1c.511 0 .917-.389.977-.884v11.88h-2.001v-22.585zm-.292 25.293v-1h2.001v1h-.001c-.553 0-1 .447-1 1s.447 1 1 1h.001v1.002h-2.001v-1.002c.553 0 1-.447 1-1s-.447-1-1-1zm0 7.002v-2h2.001v2zm1-36.767.783 1.567-.784.784-.782-.781z" data-original="#000000" class="active-path" data-old_color="#2c3e50" fill="#2c3e50"/><path d="m3.864 52.98c.046.007.088.028.136.028h7.996c.553 0 1-.447 1-1v-.016h3c.553 0 1-.447 1-1v-4c0-.553-.447-1-1-1h-3c-.002-.552-.448-.998-1-.998h-7.996c-2.206 0-4 1.794-4 4 0 2.159 1.723 3.913 3.864 3.986zm9.132-4.988h2v2h-2zm-8.996-.998h6.996v4.014h-6.929c-.023-.002-.043-.014-.067-.014-1.103 0-2-.897-2-2s.897-2 2-2z" data-original="#000000" class="active-path" data-old_color="#2c3e50" fill="#2c3e50"/><path d="m21.001 44.992h-2.002c-.553 0-1 .447-1 1v6c0 .553.447 1 1 1h2.002c2.206 0 4-1.794 4-4s-1.794-4-4-4zm0 6h-1.002v-4h1.002c1.103 0 2 .897 2 2s-.897 2-2 2z" data-original="#000000" class="active-path" data-old_color="#2c3e50" fill="#2c3e50"/><path d="m11.031 17.992c.552 0 1-.447 1-1s-.448-1-1-1h-.011c-.552 0-.994.447-.994 1s.453 1 1.005 1z" data-original="#000000" class="active-path" data-old_color="#2c3e50" fill="#2c3e50"/><path d="m7.001 18.492c0 3.032 2.468 5.5 5.5 5.5 1.903 0 3.584-.974 4.572-2.448.022-.033.043-.065.062-.102.546-.854.866-1.864.866-2.95 0-3.032-2.468-5.5-5.5-5.5s-5.5 2.468-5.5 5.5zm5.5 3.5c-.079 0-.154-.019-.232-.023l1.733-2.311.977 1.303c-.634.637-1.511 1.031-2.478 1.031zm0-7c1.93 0 3.5 1.57 3.5 3.5 0 .15-.026.294-.045.44l-1.154-1.54c-.029-.04-.072-.061-.106-.095-.033-.034-.055-.076-.094-.105-.016-.012-.035-.014-.051-.024-.061-.04-.125-.065-.192-.092-.056-.021-.108-.046-.165-.057-.065-.014-.129-.011-.195-.011-.063.001-.123-.002-.186.01-.06.012-.113.037-.171.06-.065.025-.129.05-.188.09-.016.011-.035.013-.051.024-.039.029-.061.071-.094.105-.034.034-.077.055-.106.095l-2.869 3.825c-.806-.642-1.332-1.618-1.332-2.726-.001-1.928 1.569-3.499 3.499-3.499z" data-original="#000000" class="active-path" data-old_color="#2c3e50" fill="#2c3e50"/><path d="m19.003 32.992h-13.004c-.553 0-1 .447-1 1s.447 1 1 1h13.004c.553 0 1-.447 1-1s-.447-1-1-1z" data-original="#000000" class="active-path" data-old_color="#2c3e50" fill="#2c3e50"/><path d="m16.001 35.992h-7c-.553 0-1 .447-1 1s.447 1 1 1h7c.553 0 1-.447 1-1s-.447-1-1-1z" data-original="#000000" class="active-path" data-old_color="#2c3e50" fill="#2c3e50"/><path d="m42.053 31.258c.017.061.032.118.061.174.026.054.063.101.101.149.043.058.086.11.14.157.018.015.026.036.045.05.041.031.088.046.132.069.039.021.073.044.115.06.114.044.232.071.352.071h.001 4.005 1.995 10.005.001c.119 0 .237-.027.352-.071.041-.016.075-.038.113-.059.045-.024.093-.039.135-.07.02-.015.028-.036.046-.052.053-.045.094-.098.136-.152.038-.051.076-.098.104-.153.027-.055.043-.113.061-.174.019-.066.035-.131.04-.2.002-.023.014-.044.014-.068 0-.041-.019-.075-.023-.115-.008-.067-.018-.131-.039-.196-.022-.066-.054-.126-.089-.186-.02-.033-.025-.071-.049-.104l-6.003-8c-.03-.041-.074-.063-.109-.098-.032-.032-.053-.073-.091-.102-.016-.012-.034-.013-.05-.023-.062-.041-.126-.066-.194-.093-.055-.021-.107-.045-.164-.057-.064-.013-.127-.01-.192-.01-.064 0-.126-.002-.188.01-.06.012-.113.037-.17.059-.065.025-.129.05-.188.089-.018.011-.037.013-.054.025-.041.03-.063.074-.098.109-.032.032-.073.053-.102.091l-2.701 3.604-1.202-1.604c-.031-.042-.075-.064-.111-.1-.032-.032-.053-.072-.09-.101-.015-.011-.033-.013-.049-.023-.063-.042-.129-.067-.198-.095-.054-.02-.104-.044-.159-.055-.066-.014-.132-.011-.199-.01-.062 0-.121-.003-.182.009-.06.012-.114.037-.172.06-.065.025-.13.051-.189.091-.016.01-.034.012-.05.023-.038.028-.058.069-.091.102-.035.035-.079.058-.11.099l-4.498 6c-.023.031-.029.068-.049.102-.035.06-.066.119-.089.186-.021.066-.032.132-.04.2-.004.038-.022.072-.022.112 0 .023.012.044.014.067 0 .07.016.135.036.203zm10.947-6.604 4.002 5.334h-8zm-6.497 5.334h-1.506l2.5-3.334.753 1.004z" data-original="#000000" class="active-path" data-old_color="#2c3e50" fill="#2c3e50"/><path d="m44.5 22.982c1.377 0 2.498-1.121 2.498-2.498s-1.121-2.498-2.498-2.498-2.498 1.121-2.498 2.498 1.121 2.498 2.498 2.498zm0-2.996c.274 0 .498.224.498.498s-.224.498-.498.498-.498-.224-.498-.498.224-.498.498-.498z" data-original="#000000" class="active-path" data-old_color="#2c3e50" fill="#2c3e50"/><path d="m59 34.994h-15.995c-.553 0-1 .447-1 1s.447 1 1 1h15.995c.553 0 1-.447 1-1s-.447-1-1-1z" data-original="#000000" class="active-path" data-old_color="#2c3e50" fill="#2c3e50"/><path d="m59 37.994h-15.995c-.553 0-1 .447-1 1s.447 1 1 1h15.995c.553 0 1-.447 1-1s-.447-1-1-1z" data-original="#000000" class="active-path" data-old_color="#2c3e50" fill="#2c3e50"/><path d="m55 40.994h-7.995c-.553 0-1 .447-1 1s.447 1 1 1h7.995c.553 0 1-.447 1-1s-.447-1-1-1z" data-original="#000000" class="active-path" data-old_color="#2c3e50" fill="#2c3e50"/><path d="m7.029 50c.552 0 1-.447 1-1s-.448-1-1-1h-.01c-.552 0-.994.447-.994 1s.452 1 1.004 1z" data-original="#000000" class="active-path" data-old_color="#2c3e50" fill="#2c3e50"/></g> </svg>
