<?xml version="1.0"?>
<svg xmlns="http://www.w3.org/2000/svg" xmlns:xlink="http://www.w3.org/1999/xlink" version="1.1" id="Layer_1" x="0px" y="0px" viewBox="0 0 512 512" style="enable-background:new 0 0 512 512;" xml:space="preserve" width="512px" height="512px" class=""><g><g>
	<path d="M502,0H10C4.477,0,0,4.478,0,10v492c0,5.522,4.477,10,10,10h492c5.523,0,10-4.478,10-10V10C512,4.478,507.523,0,502,0z    M20,20h143.82l10,20H90c-5.51,0-10,4.49-10,10s4.49,10,10,10h93.82l10,20H20V20z M492,492H20V100h472V492z M492,80H216.18l-30-60   H492V80z" data-original="#000000" class="active-path" data-old_color="#2c3e50" fill="#2c3e50"/>
	<path d="M422,60c5.52,0,10-4.48,10-10c0-5.521-4.48-10-10-10s-10,4.479-10,10C412,55.52,416.48,60,422,60z" data-original="#000000" class="active-path" data-old_color="#2c3e50" fill="#2c3e50"/>
	<path d="M462,60c5.52,0,10-4.48,10-10c0-5.521-4.48-10-10-10s-10,4.479-10,10C452,55.52,456.48,60,462,60z" data-original="#000000" class="active-path" data-old_color="#2c3e50" fill="#2c3e50"/>
	<path d="M382,60c5.52,0,10-4.48,10-10c0-5.521-4.48-10-10-10s-10,4.479-10,10C372,55.52,376.48,60,382,60z" data-original="#000000" class="active-path" data-old_color="#2c3e50" fill="#2c3e50"/>
	<path d="M50,40c-5.51,0-10,4.49-10,10s4.49,10,10,10c5.51,0,10-4.49,10-10S55.51,40,50,40z" data-original="#000000" class="active-path" data-old_color="#2c3e50" fill="#2c3e50"/>
	<path d="M251,452h-40c-5.523,0-10,4.478-10,10s4.477,10,10,10h40c5.523,0,10-4.478,10-10S256.523,452,251,452z" data-original="#000000" class="active-path" data-old_color="#2c3e50" fill="#2c3e50"/>
	<path d="M301,452h-10c-5.523,0-10,4.478-10,10s4.477,10,10,10h10c5.523,0,10-4.478,10-10S306.523,452,301,452z" data-original="#000000" class="active-path" data-old_color="#2c3e50" fill="#2c3e50"/>
	<path d="M301,412h-90c-5.523,0-10,4.478-10,10s4.477,10,10,10h90c5.523,0,10-4.478,10-10S306.523,412,301,412z" data-original="#000000" class="active-path" data-old_color="#2c3e50" fill="#2c3e50"/>
	<path d="M301,372h-40c-5.523,0-10,4.478-10,10s4.477,10,10,10h40c5.523,0,10-4.478,10-10S306.523,372,301,372z" data-original="#000000" class="active-path" data-old_color="#2c3e50" fill="#2c3e50"/>
	<path d="M211,392h10c5.523,0,10-4.478,10-10s-4.477-10-10-10h-10c-5.523,0-10,4.478-10,10S205.477,392,211,392z" data-original="#000000" class="active-path" data-old_color="#2c3e50" fill="#2c3e50"/>
	<path d="M131,452H61c-5.523,0-10,4.478-10,10s4.477,10,10,10h70c5.523,0,10-4.478,10-10S136.523,452,131,452z" data-original="#000000" class="active-path" data-old_color="#2c3e50" fill="#2c3e50"/>
	<path d="M151,412H61c-5.523,0-10,4.478-10,10s4.477,10,10,10h90c5.523,0,10-4.478,10-10S156.523,412,151,412z" data-original="#000000" class="active-path" data-old_color="#2c3e50" fill="#2c3e50"/>
	<path d="M61,392c5.51,0,10-4.49,10-10s-4.49-10-10-10c-5.51,0-10,4.49-10,10S55.49,392,61,392z" data-original="#000000" class="active-path" data-old_color="#2c3e50" fill="#2c3e50"/>
	<path d="M151,372h-50c-5.51,0-10,4.49-10,10s4.49,10,10,10h50c5.51,0,10-4.49,10-10S156.51,372,151,372z" data-original="#000000" class="active-path" data-old_color="#2c3e50" fill="#2c3e50"/>
	<path d="M431,452h-70c-5.523,0-10,4.478-10,10s4.477,10,10,10h70c5.523,0,10-4.478,10-10S436.523,452,431,452z" data-original="#000000" class="active-path" data-old_color="#2c3e50" fill="#2c3e50"/>
	<path d="M361,432h50c5.51,0,10-4.49,10-10s-4.49-10-10-10h-50c-5.51,0-10,4.49-10,10S355.49,432,361,432z" data-original="#000000" class="active-path" data-old_color="#2c3e50" fill="#2c3e50"/>
	<path d="M451,412c-5.51,0-10,4.49-10,10s4.49,10,10,10c5.51,0,10-4.49,10-10S456.51,412,451,412z" data-original="#000000" class="active-path" data-old_color="#2c3e50" fill="#2c3e50"/>
	<path d="M351,382c0,5.522,4.477,10,10,10h90c5.523,0,10-4.478,10-10s-4.477-10-10-10h-90C355.477,372,351,376.478,351,382z" data-original="#000000" class="active-path" data-old_color="#2c3e50" fill="#2c3e50"/>
	<path d="M125.924,120.187c-3.271-0.638-6.641,0.388-8.996,2.742l-22.5,22.5c-3.905,3.905-3.905,10.237,0,14.143   c1.953,1.952,4.512,2.929,7.071,2.929s5.119-0.977,7.071-2.929l18.732-18.733L164,148.034v103.088   c-17.762,4.235-31,20.054-31,38.878c0,20.067,15.041,36.726,34.574,39.568C171.577,341.431,182.803,350,196,350   c13.036,0,24.152-8.361,28.28-20h103.44c4.128,11.639,15.243,20,28.28,20c16.542,0,30-13.458,30-30s-13.458-30-30-30   c-13.036,0-24.152,8.361-28.28,20H224.28c-4.128-11.639-15.243-20-28.28-20c-12.753,0-23.667,8.003-28,19.248   c-8.638-2.353-15-10.08-15-19.248c0-11.028,9.196-20,20.5-20c0.084,0,182.5,0,182.5,0c4.589,0,8.588-3.123,9.702-7.574l30-120   c0.747-2.988,0.076-6.152-1.82-8.58C391.987,131.419,389.08,130,386,130H175.973L125.924,120.187z M356,310c5.514,0,10,4.486,10,10   s-4.486,10-10,10s-10-4.486-10-10S350.486,310,356,310z M196,310c5.514,0,10,4.486,10,10s-4.486,10-10,10s-10-4.486-10-10   S190.486,310,196,310z M342.46,150h30.733l-5,20h-29.094L342.46,150z M335.737,190h27.455l-5,20h-25.817L335.737,190z M329.014,230   h24.178l-5,20h-22.539L329.014,230z M292.46,150h29.719l-3.361,20h-29.719L292.46,150z M285.737,190h29.719l-3.361,20h-29.719   L285.737,190z M279.014,230h29.719l-3.361,20h-29.719L279.014,230z M242.46,150h29.719l-3.361,20h-29.719L242.46,150z M235.737,190   h29.719l-3.361,20h-29.719L235.737,190z M229.014,230h29.719l-3.361,20h-29.719L229.014,230z M184,150h38.179l-3.361,20H184V150z    M184,190h31.456l-3.361,20H184V190z M184,230h24.734l-3.361,20H184V230z" data-original="#000000" class="active-path" data-old_color="#2c3e50" fill="#2c3e50"/>
</g></g> </svg>
