<svg aria-hidden="true" style="position: absolute; width: 0; height: 0; overflow: hidden;" version="1.1" xmlns="http://www.w3.org/2000/svg" xmlns:xlink="http://www.w3.org/1999/xlink">
<defs>

<symbol id="icon-email" viewBox="0 0 32 32">
<path d="M26.667 5.333h-21.333c-1.473 0-2.667 1.194-2.667 2.667v0 16c0 1.473 1.194 2.667 2.667 2.667v0h21.333c1.473 0 2.667-1.194 2.667-2.667v0-16c0-1.473-1.194-2.667-2.667-2.667v0zM26.667 11.733l-10.667 7.107-10.667-7.107v-3.337l10.667 7.111 10.667-7.111v3.337z"></path>
</symbol>
<symbol id="icon-linkedin" viewBox="0 0 32 32">
<path d="M28.267 2.667h-24.534c-0.59 0-1.066 0.476-1.066 1.066v24.534c0 0.59 0.476 1.066 1.066 1.066h24.534c0.59 0 1.066-0.476 1.066-1.066v-24.534c0-0.59-0.476-1.066-1.066-1.066zM10.577 25.39h-3.957v-12.727h3.957v12.727zM8.6 10.923c-1.266 0-2.293-1.027-2.293-2.293s1.027-2.293 2.293-2.293v0c1.266 0 2.293 1.027 2.293 2.293s-1.027 2.293-2.293 2.293v0zM25.39 25.39h-3.953v-6.19c0-1.477-0.027-3.373-2.057-3.373-2.057 0-2.373 1.606-2.373 3.266v6.297h-3.95v-12.727h3.793v1.74h0.053c0.527-1 1.817-2.056 3.744-2.056 4.006 0 4.743 2.636 4.743 6.063v6.98z"></path>
</symbol>

<symbol id="icon-facebook" viewBox="0 0 32 32">
<path d="M21.040 29.333v-10.32h3.456l0.517-4.012h-3.973v-2.56c0-1.161 0.323-1.953 1.988-1.953h2.124v-3.589c-0.897-0.1-1.936-0.158-2.989-0.158-0.038 0-0.075 0-0.113 0l0.006-0c-3.061 0-5.159 1.869-5.159 5.303v2.957h-3.463v4.012h3.463v10.32h-12.749c-0.818 0-1.481-0.663-1.481-1.481v0-23.705c0.001-0.818 0.664-1.48 1.481-1.48 0 0 0 0 0 0h23.705c0.818 0.001 1.48 0.664 1.48 1.481 0 0 0 0 0 0v0 23.705c-0.001 0.818-0.664 1.48-1.481 1.48 0 0 0 0 0 0h-6.812z"></path>
</symbol>
<symbol id="icon-telegram" viewBox="0 0 32 32">
<path d="M25.904 5.488c0.228-0.098 0.493-0.155 0.772-0.155 0.467 0 0.897 0.16 1.238 0.429l-0.004-0.003c0.462 0.366 0.756 0.927 0.756 1.557 0 0.113-0.009 0.223-0.027 0.33l0.002-0.012-3.009 18.161c-0.292 1.752-2.223 2.756-3.837 1.884-1.351-0.731-3.357-1.855-5.161-3.028-0.903-0.588-3.667-2.469-3.327-3.808 0.292-1.144 4.936-5.445 7.589-8.003 1.041-1.004 0.567-1.584-0.664-0.66-3.053 2.293-7.957 5.784-9.579 6.765-1.431 0.867-2.176 1.013-3.067 0.867-1.627-0.269-3.136-0.687-4.368-1.195-1.663-0.687-1.583-2.963 0-3.625l22.687-9.505z"></path>
</symbol>
<symbol id="icon-whatsapp" viewBox="0 0 32 32">
<path d="M16.001 2.667c7.364 0 13.333 5.969 13.333 13.333s-5.969 13.333-13.333 13.333c-0.006 0-0.014 0-0.022 0-2.463 0-4.77-0.671-6.747-1.84l0.062 0.034-6.621 1.807 1.803-6.624c-1.136-1.916-1.808-4.223-1.808-6.687 0-0.008 0-0.016 0-0.023v0.001c0-7.364 5.969-13.333 13.333-13.333zM11.457 9.733l-0.267 0.011c-0.183 0.011-0.352 0.059-0.503 0.137l0.007-0.003c-0.15 0.086-0.279 0.187-0.392 0.303l-0.001 0.001c-0.16 0.151-0.251 0.281-0.348 0.408-0.471 0.607-0.755 1.38-0.755 2.219 0 0.006 0 0.013 0 0.019v-0.001c0.003 0.653 0.173 1.289 0.44 1.884 0.545 1.203 1.443 2.476 2.627 3.656 0.285 0.284 0.565 0.569 0.867 0.835 1.416 1.252 3.136 2.196 5.032 2.708l0.088 0.020 0.757 0.116c0.247 0.013 0.493-0.005 0.741-0.017 0.41-0.022 0.789-0.133 1.125-0.315l-0.014 0.007c0.173-0.089 0.345-0.187 0.511-0.293 0 0 0.057-0.037 0.167-0.12 0.18-0.133 0.291-0.228 0.44-0.384 0.111-0.115 0.207-0.249 0.28-0.403 0.104-0.217 0.208-0.632 0.251-0.977 0.032-0.264 0.023-0.408 0.019-0.497-0.005-0.143-0.124-0.291-0.253-0.353l-0.776-0.348s-1.16-0.505-1.869-0.828c-0.069-0.031-0.149-0.051-0.233-0.055l-0.002-0c-0.020-0.002-0.042-0.003-0.065-0.003-0.17 0-0.324 0.066-0.439 0.173l0-0c-0.007-0.003-0.096 0.073-1.060 1.241-0.086 0.115-0.222 0.188-0.374 0.188-0.041 0-0.081-0.005-0.12-0.015l0.003 0.001c-0.101-0.027-0.185-0.057-0.267-0.093l0.012 0.005c-0.165-0.069-0.223-0.096-0.336-0.144-0.805-0.356-1.498-0.805-2.109-1.345l0.009 0.007c-0.168-0.147-0.324-0.307-0.484-0.461-0.515-0.494-0.964-1.048-1.339-1.655l-0.021-0.036-0.079-0.127c-0.053-0.079-0.099-0.169-0.133-0.265l-0.003-0.009c-0.051-0.196 0.081-0.353 0.081-0.353s0.324-0.355 0.475-0.547c0.147-0.187 0.271-0.368 0.351-0.497 0.157-0.253 0.207-0.513 0.124-0.715-0.373-0.912-0.76-1.82-1.157-2.721-0.079-0.179-0.312-0.307-0.524-0.332-0.046-0.006-0.12-0.014-0.195-0.020l-0.021-0.001c-0.067-0.004-0.145-0.006-0.224-0.006-0.11 0-0.22 0.004-0.328 0.012l0.015-0.001 0.268-0.011 0.001 0.001z"></path>
</symbol>
<symbol id="icon-github" viewBox="0 0 32 32">
<path d="M16 0.395c-8.836 0-16 7.163-16 16 0 7.069 4.585 13.067 10.942 15.182 0.8 0.148 1.094-0.347 1.094-0.77 0-0.381-0.015-1.642-0.022-2.979-4.452 0.968-5.391-1.888-5.391-1.888-0.728-1.849-1.776-2.341-1.776-2.341-1.452-0.993 0.11-0.973 0.11-0.973 1.606 0.113 2.452 1.649 2.452 1.649 1.427 2.446 3.743 1.739 4.656 1.33 0.143-1.034 0.558-1.74 1.016-2.14-3.554-0.404-7.29-1.777-7.29-7.907 0-1.747 0.625-3.174 1.649-4.295-0.166-0.403-0.714-2.030 0.155-4.234 0 0 1.344-0.43 4.401 1.64 1.276-0.355 2.645-0.532 4.005-0.539 1.359 0.006 2.729 0.184 4.008 0.539 3.054-2.070 4.395-1.64 4.395-1.64 0.871 2.204 0.323 3.831 0.157 4.234 1.026 1.12 1.647 2.548 1.647 4.295 0 6.145-3.743 7.498-7.306 7.895 0.574 0.497 1.085 1.47 1.085 2.963 0 2.141-0.019 3.864-0.019 4.391 0 0.426 0.288 0.925 1.099 0.768 6.354-2.118 10.933-8.113 10.933-15.18 0-8.837-7.164-16-16-16z"></path>
</symbol>
</defs>
</svg>
