<?xml version="1.0"?>
<svg xmlns="http://www.w3.org/2000/svg" height="512px" viewBox="-16 0 480 480" width="512px"><g><path d="m217.191406 128c-46.050781-.058594-85.660156 32.59375-94.382812 77.816406-8.722656 45.21875 15.894531 90.265625 58.664062 107.339844 42.773438 17.078125 91.644532 1.375 116.464844-37.421875.054688-.085937.144531-.140625.199219-.230469.054687-.089844.046875-.167968.089843-.246094 18.78125-29.535156 19.964844-66.960937 3.089844-97.628906-16.871094-30.664062-49.121094-49.691406-84.125-49.628906zm80 96c-.007812 12.488281-2.960937 24.796875-8.621094 35.929688l-63.378906-40.320313v-75.203125c40.855469 4.15625 71.949219 38.53125 72 79.59375zm-80 80c-42.597656-.035156-77.695312-33.449219-79.828125-75.996094-2.132812-42.542968 29.449219-79.300781 71.828125-83.597656v79.59375c0 2.734375 1.398438 5.28125 3.707032 6.753906l67.101562 42.671875c-15.128906 19.292969-38.285156 30.566407-62.808594 30.574219zm0 0" data-original="#000000" class="active-path" data-old_color="#dddddd" fill="#dddddd"/><path d="m164.449219 74.441406c.25-2.140625-.371094-4.292968-1.726563-5.96875l-19-23.503906c-2.683594-3.304688-7.480468-3.9375-10.921875-1.433594l-4.800781 3.472656c-4.136719-17.664062-19.601562-30.359374-37.734375-30.972656-18.132813-.617187-34.421875 11.003906-39.746094 28.347656l-22.648437 73.722657c-1.40625 4.566406-3.21875 8.996093-5.414063 13.238281-.144531.269531-.269531.550781-.375.839844l-21.601562 56.984375c-.332031.90625-.4921878 1.867187-.480469 2.832031v280c0 4.417969 3.582031 8 8 8h217.191406c.539063 0 1.074219-.054688 1.601563-.160156l18.0625-3.625c1.109375-.226563 2.160156-.691406 3.074219-1.359375.800781.074219 1.542968.183593 2.335937.183593h28.800781c21.859375 0 42.976563-7.933593 59.429688-22.328124l24.351562-21.320313c10.011719-8.726563 14.421875-22.242187 11.488282-35.195313-2.933594-12.953124-12.742188-23.25-25.535157-26.8125l18.535157-12.359374c17.523437-11.742188 23.015624-35.015626 12.59375-53.351563-1.105469-1.832031-2.351563-3.574219-3.738282-5.207031 2.769532-1.507813 5.355469-3.324219 7.714844-5.417969l49.816406-44.480469c11.265625-10.042968 16.410156-25.28125 13.53125-40.097656-2.878906-14.820312-13.355468-27.023438-27.566406-32.117188l-44.160156-18.910156c-9-3.867187-19.105469-4.289062-28.398438-1.183594l-17.902344 5.964844c-7.640624-13.78125-17.742187-26.046875-29.808593-36.183594l11.773437-14.71875 3.945313 3.023438c1.390625 1.078125 3.101562 1.664062 4.863281 1.65625 2.460938.003906 4.785156-1.128906 6.304688-3.0625l17.601562-22.402344 2.214844.367188c9.742187 1.625 19.703125-1.121094 27.238281-7.503906 7.535156-6.386719 11.882813-15.761719 11.882813-25.636719.027343-18.824219-12.785157-35.238281-31.050782-39.785157l-19.808594-4.960937c-14.15625-3.503906-29.070312-2.304687-42.484374 3.417969-.570313.25-1.105469.566406-1.601563.941406l-25.105469 18.714844v-28.089844c0-4.417969-3.582031-8-8-8h-80c-4.417968 0-8 3.582031-8 8v32c0 4.417969 3.582032 8 8 8h8v24c0 4.417969 3.582032 8 8 8v18.335938c-6.425781 1.25-12.746094 2.992187-18.902344 5.214843l-16.65625-20.796875 3.75-2.898437c1.710938-1.316407 2.816407-3.269531 3.066407-5.414063zm-28.375-13.488281 9.0625 11.199219-32.121094 24.757812-9.816406-11.933594zm-10.800781 52.957031 9.703124 12.128906c-5.898437 4.941407-11.34375 10.398438-16.265624 16.3125zm99.128906 350.089844h-208.402344v-270.535156l20.878906-55.199219c2.554688-4.960937 4.667969-10.132813 6.320313-15.457031l22.679687-73.71875c3.527344-11.449219 14.894532-18.597656 26.738282-16.816406s20.605468 11.957031 20.609374 23.933593c.050782.484375.144532.960938.285157 1.425781l-26.589844 19.421876c-1.777344 1.300781-2.941406 3.273437-3.21875 5.460937-.273437 2.183594.363281 4.382813 1.761719 6.085937l20.136718 24.488282c.796876.953125 1.808594 1.707031 2.953126 2.199218l-23.082032 100c-.078125.558594-.09375 1.125-.046875 1.6875-.082031.046876-.167969 0-.242187.085938-3.8125 2.226562-5.101563 7.121094-2.878906 10.9375l39.617187 67.902344c10.007813 17.179687 15.28125 36.703125 15.285156 56.585937v31.511719c0 4.417969 3.582031 8 8 8 4.421875 0 8-3.582031 8-8v-31.480469c-.015625-6.199219-.476562-12.386719-1.382812-18.519531 27.476562 16.339844 60.070312 21.8125 91.375 15.34375-5.796875 10.953125-6.183594 23.972656-1.046875 35.25 5.132812 11.277344 15.210937 19.535156 27.28125 22.351562h.199218l-33.296874 22.199219c-11.328126 7.378907-14.621094 22.496094-7.390626 33.917969zm132.671875-68.800781c4.09375 8.207031 2.140625 18.144531-4.761719 24.183593l-24.359375 21.320313c-13.53125 11.855469-30.90625 18.394531-48.894531 18.402344h-28.800782c-3.984374 0-7.496093-2.609375-8.652343-6.421875-1.152344-3.8125.320312-7.929688 3.636719-10.140625l82.621093-55.085938c3.304688-2.230469 7.191407-3.429687 11.175781-3.457031 1.742188-.003906 3.476563.222656 5.160157.671875 5.605469 1.496094 10.296875 5.332031 12.875 10.527344zm2.261719-91.046875c6.351562 4.675781 10.023437 12.152344 9.84375 20.035156-.179688 7.882812-4.191407 15.183594-10.746094 19.566406l-66.335938 44.222656c-11.109375 7.40625-26.117187 4.402344-33.519531-6.703124-7.40625-11.109376-4.40625-26.117188 6.703125-33.519532l66.328125-44.226562c2.132813-1.382813 4.46875-2.414063 6.925781-3.0625 3.960938 1.742187 8.164063 2.867187 12.464844 3.335937 1.488281.152344 2.984375.230469 4.480469.230469 1.167969 0 2.304687-.222656 3.457031-.320312.160156.097656.261719.289062.398438.402343zm69.25-100.601563c6.203124 10.96875 3.886718 24.777344-5.554688 33.121094l-49.863281 44.527344c-10.714844 9.808593-27.347657 9.070312-37.15625-1.644531-9.804688-10.714844-9.070313-27.347657 1.644531-37.15625l49.296875-45.503907c6.042969-5.558593 14.296875-8.046875 22.40625-6.753906s15.179687 6.222656 19.195313 13.386719zm-76.402344-32.070312c5.578125-1.875 11.648437-1.625 17.050781.703125l15.710937 6.726562c-3.203124 1.710938-6.175781 3.820313-8.847656 6.273438l-31.402344 28.976562c-.964843-12.820312-3.875-25.417968-8.628906-37.359375zm-22.992188 52.519531c0 1.535156-.085937 3.046875-.152344 4.566406l-2.238281 2.074219c-12.582031 11.703125-16.824219 29.859375-10.726562 45.925781-15.753907 29.683594-44.015625 50.714844-76.96875 57.273438-32.957031 6.558594-67.117188-2.050782-93.03125-23.441406-2.714844-7.828126-6.183594-15.378907-10.351563-22.542969l-30.167968-51.703125c.097656-.472656.148437-.949219.148437-1.433594-.335937-3.566406-.511719-7.199219-.511719-10.734375 0-61.855469 50.144532-112 112-112 61.855469 0 112 50.144531 112 112zm-42.6875-107.449219c-3.605468-2.316406-7.328125-4.453125-11.152344-6.398437l13.042969-16.296875 10.09375 7.746093zm32.089844-19.75-30.136719-23.128906 11.199219-13.519531 29.144531 23.625zm-19.585938-66c9.980469-4.054687 20.992188-4.84375 31.449219-2.25l19.800781 4.953125c11.140626 2.777344 18.953126 12.789063 18.933594 24.273438.003906 5.175781-2.273437 10.089844-6.21875 13.433594-3.949218 3.347656-9.171875 4.785156-14.277344 3.933593l-6.398437-1.074219-38.777344-31.292968c-3.40625-2.761719-8.402343-2.261719-11.199219 1.117187l-21.503906 26c-1.382812 1.675781-2.027344 3.84375-1.78125 6.003907.246094 2.15625 1.359375 4.125 3.085938 5.445312l3.550781 2.726562-15.582031 19.488282c-6.160156-2.230469-12.484375-3.976563-18.914063-5.222656v-18.335938c4.417969 0 8-3.582031 8-8v-4zm-49.816406 17.238281v-.039062h.058594zm-64-32.039062h64v16h-64zm48 32v16h-32v-16zm-24 32h16v16.40625c-2.65625-.167969-5.292968-.40625-8-.40625-2.703125 0-5.335937.238281-8 .40625zm-50.152344 30.121094c-3.824218 1.9375-7.546874 4.074218-11.148437 6.398437l-13.019531-16.273437 10.082031-7.773438zm0 0" data-original="#000000" class="active-path" data-old_color="#dddddd" fill="#dddddd"/></g> </svg>
