<?xml version="1.0"?>
<svg xmlns="http://www.w3.org/2000/svg" xmlns:xlink="http://www.w3.org/1999/xlink" version="1.1" id="Capa_1" x="0px" y="0px" viewBox="0 0 508 508" style="enable-background:new 0 0 508 508;" xml:space="preserve" width="512px" height="512px" class=""><g><g>
	<g>
		<path d="M471.5,291.6l12.7-12.7c13.6-13.6,13.6-35.7,0-49.3c-6.6-6.6-15.3-10.2-24.6-10.2s-18.1,3.6-24.6,10.2l-50.7,50.7V106.6    L277.6,0h-266v508h372.5V378.9l75.4-75.4l12.9,12.9l-50,50l12,12l62-62L471.5,291.6z M282.5,28.9l72.7,72.7h-72.7V28.9z     M367.2,491.1H28.5V16.9h237.1v101.6h101.6v178.7l-24.7,24.7H147.1v16.9h178.5l-72.8,72.8l-16.4,65.7l65.7-16.4l65.1-65.1V491.1z     M272.5,416l44-44l25.4,25.4l-44.1,43.9L272.5,416z M281.3,448.7l-21.6,5.4l5.4-21.6L281.3,448.7z M353.8,385.3L328.4,360    l93.8-93.8l25.4,25.3L353.8,385.3z M434.2,254.4l12.7-12.8c6.8-6.8,18.6-6.8,25.4,0c7,7,7,18.4,0,25.4l-12.7,12.7L434.2,254.4z" data-original="#000000" class="active-path" data-old_color="#dddddd" fill="#dddddd"/>
	</g>
</g><g>
	<g>
		<path d="M53.9,126.2h67.7V59.6H53.9V126.2z M70.9,76.6h33.9v32.7h-0.1H70.9V76.6z" data-original="#000000" class="active-path" data-old_color="#dddddd" fill="#dddddd"/>
	</g>
</g><g>
	<g>
		<rect x="147.1" y="84.5" width="93.1" height="16.9" data-original="#000000" class="active-path" data-old_color="#dddddd" fill="#dddddd"/>
	</g>
</g><g>
	<g>
		<path d="M53.9,245h67.7v-66.6H53.9V245z M70.9,195.3h33.9V228h-0.1H70.9V195.3z" data-original="#000000" class="active-path" data-old_color="#dddddd" fill="#dddddd"/>
	</g>
</g><g>
	<g>
		<rect x="147.1" y="203.2" width="194.7" height="16.9" data-original="#000000" class="active-path" data-old_color="#dddddd" fill="#dddddd"/>
	</g>
</g><g>
	<g>
		<path d="M53.9,363.7h67.7v-66.6H53.9V363.7z M70.9,314h33.9v32.8h-0.1H70.9V314z" data-original="#000000" class="active-path" data-old_color="#dddddd" fill="#dddddd"/>
	</g>
</g><g>
	<g>
		<rect x="53.9" y="414.9" width="16.9" height="16.9" data-original="#000000" class="active-path" data-old_color="#dddddd" fill="#dddddd"/>
	</g>
</g><g>
	<g>
		<rect x="87.8" y="414.9" width="16.9" height="16.9" data-original="#000000" class="active-path" data-old_color="#dddddd" fill="#dddddd"/>
	</g>
</g><g>
	<g>
		<rect x="121.7" y="414.9" width="16.9" height="16.9" data-original="#000000" class="active-path" data-old_color="#dddddd" fill="#dddddd"/>
	</g>
</g></g> </svg>
